<?xml version="1.0" encoding="utf-8"?>
<!-- Generator: Adobe Illustrator 22.1.0, SVG Export Plug-In . SVG Version: 6.00 Build 0)  -->
<svg version="1.1" id="Capa_1" xmlns="http://www.w3.org/2000/svg" xmlns:xlink="http://www.w3.org/1999/xlink" x="0px" y="0px"
	 viewBox="0 0 235 92" style="enable-background:new 0 0 235 92;" xml:space="preserve">
<style type="text/css">
	.st0{fill:none;}
	.st1{fill:#006655;}
	.st2{fill:#FFFFFF;}
	.st3{fill:#00A98F;}
	.st4{fill:#6D6E71;}
</style>
<g>
	<rect x="7.8" y="-6.3" class="st0" width="219.4" height="104.7"/>
	<g>
		<polygon class="st1" points="161.1,23.7 161.1,74 200.2,74 210,23.7 		"/>
		<path class="st2" d="M187.7,36c-1.6-1.4-4.2-2.1-7.6-2.1c-1.6,0-3.2,0.2-4.9,0.5c-0.9,0.2-1.7,0.4-2.5,0.7l-1.3,6.5
			c1-0.5,1.9-0.9,2.7-1.2c1.1-0.3,2.4-0.5,3.8-0.5c1.4,0,2.5,0.3,3.1,1c0.6,0.7,1,1.5,1,2.5c0,1.4-0.6,2.8-1.9,4.1
			c-1.2,1.3-3.8,3.3-7.6,6l-3.9,2.8l-1.5,7.6h19.3l1.2-6.2H176l5.1-3.6c3.1-2.2,5.4-4.3,6.9-6.2c1.5-1.9,2.2-4.1,2.2-6.4
			C190.2,39.2,189.4,37.4,187.7,36z"/>
		<polygon class="st3" points="211.5,23.7 209.5,23.7 199.6,74 211.5,74 		"/>
		<polygon class="st2" points="199.9,44.5 192.6,47 191.3,53.6 196.9,51.4 192.5,74 199.6,74 205.4,44.5 		"/>
	</g>
	<g>
		<path class="st4" d="M24.8,9.6h2.6v7.5c0,2.2,0.7,3.7,2.7,3.7c2,0,2.7-1.4,2.7-3.7V9.6h2.6v8.3c0,3.5-2,4.9-5.3,4.9
			c-3.3,0-5.3-1.4-5.3-4.9V9.6z"/>
		<path class="st4" d="M38.3,9.6h3.2l4.9,9.7h0V9.6h2.5v12.9h-3.2l-5-9.7h0v9.7h-2.5V9.6z"/>
		<path class="st4" d="M51.6,9.6h2.6v12.9h-2.6V9.6z"/>
		<path class="st4" d="M55.8,9.6h2.8l3.3,10.2h0l3.3-10.2h2.6l-4.4,12.9h-3.2L55.8,9.6z"/>
		<path class="st4" d="M69.6,9.6h7.6v2h-5v3.2h4.6v2h-4.6v3.6h5.1v2h-7.7V9.6z"/>
		<path class="st4" d="M79.8,9.6h2.8c2.8,0,6.1-0.1,6.1,3.5c0,1.5-1,2.8-2.7,3v0c0.7,0.1,1.1,0.8,1.4,1.3l2.1,5.1h-2.9l-1.6-4
			c-0.4-1-0.7-1.3-1.8-1.3h-0.8v5.4h-2.6V9.6z M82.3,15.1h0.9c1.3,0,2.7-0.2,2.7-1.8c0-1.6-1.4-1.7-2.7-1.7h-0.9V15.1z"/>
		<path class="st4" d="M98.3,12c-0.8-0.4-1.7-0.6-2.6-0.6c-0.9,0-2,0.4-2,1.8c0,2.2,5.7,1.3,5.7,5.6c0,2.8-2.2,3.9-4.9,3.9
			c-1.4,0-2-0.2-3.3-0.5l0.2-2.3c0.9,0.5,1.9,0.8,2.9,0.8c1,0,2.3-0.5,2.3-1.7c0-2.5-5.7-1.4-5.7-5.7c0-2.9,2.2-3.9,4.5-3.9
			c1.1,0,2.2,0.1,3.1,0.5L98.3,12z"/>
		<path class="st4" d="M101.6,9.6h2.6v12.9h-2.6V9.6z"/>
		<path class="st4" d="M107,9.6h3.5c4,0,7.5,1.3,7.5,6.5c0,5.1-3.5,6.5-7.5,6.5H107V9.6z M109.6,20.5h1.4c2.2,0,4.3-1.6,4.3-4.4
			c0-2.8-2.1-4.4-4.3-4.4h-1.4V20.5z"/>
		<path class="st4" d="M124.2,9.6h2.9l5.1,12.9h-2.9l-1.1-3H123l-1.1,3h-2.7L124.2,9.6z M125.7,12.2L125.7,12.2l-1.9,5.3h3.8
			L125.7,12.2z"/>
		<path class="st4" d="M134,9.6h3.5c4,0,7.5,1.3,7.5,6.5c0,5.1-3.5,6.5-7.5,6.5H134V9.6z M136.6,20.5h1.4c2.2,0,4.3-1.6,4.3-4.4
			c0-2.8-2.1-4.4-4.3-4.4h-1.4V20.5z"/>
	</g>
	<g>
		<g>
			<g>
				<g>
					<path class="st1" d="M50.8,34.3h7.9v29.5h-7.9V34.3z"/>
				</g>
			</g>
			<g>
				<g>
					<path class="st1" d="M131.5,33.8c9.7,0,14.8,5.8,14.8,15.3c0,9.4-5.2,15.3-14.8,15.3c-9.6,0-14.8-5.9-14.8-15.3
						C116.7,39.6,121.8,33.8,131.5,33.8z M131.5,58.5c4.8,0,6.7-4.6,6.7-9.4c0-5.1-1.9-9.4-6.7-9.4c-4.8,0-6.7,4.3-6.7,9.4
						C124.8,54,126.7,58.5,131.5,58.5z"/>
				</g>
			</g>
			<g>
				<path class="st1" d="M80.7,33.8c-10.8,0-17,4.3-17,15.4c0,11.2,7.4,15.1,15.3,15.1c2.7,0,6.4-0.1,11.4-1.4V46.6h-11l-1.1,5.6
					h4.5V58c-0.7,0.3-1.7,0.5-2.8,0.5c-5.7,0-8.2-3.5-8.2-9.3c0-6.9,3.6-9.6,10-9.6c1.7,0,4.3,0.4,6.6,1.6l1.2-6.1
					C86.7,34,82.6,33.8,80.7,33.8z"/>
			</g>
			<g>
				<path class="st1" d="M36.4,33.8c-5.9,0-12.9,1.9-12.9,9c0,10.7,14,7.3,14,12.8c0,2.4-2.4,2.9-4.9,2.9c-3.3,0-6.1-0.8-8.1-1.9
					l-0.7,6.5c2.6,0.8,6,1.3,8.8,1.3c6.6,0,13-2.1,13-9.7c0-10.7-14-7.4-14-12.2c0-2.6,3.3-2.7,5.3-2.7c1.9,0,3.8,0.3,5.6,1l1.1-5.8
					C41.7,34.2,39.1,33.8,36.4,33.8z"/>
			</g>
			<g>
				<polygon class="st1" points="114.4,58 104.1,58 104.1,34.3 96.3,34.3 96.3,63.9 114.4,63.9 				"/>
			</g>
		</g>
	</g>
	<g>
		<g>
			<path class="st4" d="M24.6,75.1h1.5v6.2H29v1.2h-4.4V75.1z"/>
			<path class="st4" d="M30.1,77.3c0.6-0.3,1.3-0.4,1.9-0.4c1.7,0,2.4,0.7,2.4,2.3v0.7c0,0.6,0,1,0,1.4c0,0.4,0,0.8,0.1,1.2h-1.3
				c-0.1-0.3-0.1-0.6-0.1-0.8h0c-0.3,0.6-1,0.9-1.7,0.9c-1,0-1.9-0.6-1.9-1.6c0-0.8,0.4-1.3,0.9-1.6c0.5-0.3,1.2-0.3,1.8-0.3H33
				c0-0.9-0.4-1.2-1.2-1.2c-0.6,0-1.2,0.2-1.7,0.6L30.1,77.3z M31.7,81.6c0.4,0,0.8-0.2,1-0.5c0.2-0.3,0.3-0.7,0.3-1.1h-0.6
				c-0.6,0-1.6,0.1-1.6,0.9C30.8,81.4,31.2,81.6,31.7,81.6z"/>
			<path class="st4" d="M43.1,82.2c-0.5,0.3-1.1,0.4-1.9,0.4c-1.8,0-2.9-1-2.9-2.8c0-1.6,0.8-2.9,2.5-2.9c2,0,2.6,1.4,2.6,3.3h-3.8
				c0.1,0.9,0.7,1.4,1.6,1.4c0.7,0,1.3-0.3,1.8-0.6V82.2z M42.1,79.2c0-0.7-0.4-1.3-1.2-1.3s-1.2,0.6-1.3,1.3H42.1z"/>
			<path class="st4" d="M48.2,81.9L48.2,81.9c-0.4,0.5-1,0.7-1.7,0.7c-1.7,0-2.3-1.4-2.3-2.9c0-1.5,0.6-2.8,2.3-2.8
				c0.7,0,1.2,0.2,1.6,0.8h0v-3.1h1.4v8h-1.4V81.9z M46.9,81.5c0.9,0,1.3-1,1.3-1.8c0-0.8-0.4-1.7-1.3-1.7c-0.9,0-1.2,1-1.2,1.7
				C45.7,80.5,46,81.5,46.9,81.5z"/>
			<path class="st4" d="M56.1,82.5h-1.3v-0.7h0c-0.4,0.5-1.1,0.9-1.8,0.9c-1.3,0-1.9-0.9-1.9-2.1V77h1.4v2.9c0,0.7,0,1.6,0.9,1.6
				c1,0,1.3-1.1,1.3-1.8V77h1.4V82.5z"/>
			<path class="st4" d="M61.1,78.2c-0.3-0.1-0.5-0.2-1-0.2c-0.9,0-1.4,0.7-1.4,1.7c0,1,0.5,1.8,1.5,1.8c0.4,0,0.8-0.1,1.1-0.3
				l0.1,1.2c-0.4,0.1-0.8,0.2-1.4,0.2c-1.8,0-2.7-1.2-2.7-2.9c0-1.6,0.9-2.8,2.6-2.8c0.6,0,1,0.1,1.4,0.2L61.1,78.2z"/>
			<path class="st4" d="M62.5,77.3c0.6-0.3,1.3-0.4,1.9-0.4c1.7,0,2.4,0.7,2.4,2.3v0.7c0,0.6,0,1,0,1.4c0,0.4,0,0.8,0.1,1.2h-1.3
				c-0.1-0.3-0.1-0.6-0.1-0.8h0c-0.3,0.6-1,0.9-1.7,0.9c-1,0-1.9-0.6-1.9-1.6c0-0.8,0.4-1.3,0.9-1.6c0.5-0.3,1.2-0.3,1.8-0.3h0.8
				c0-0.9-0.4-1.2-1.2-1.2c-0.6,0-1.2,0.2-1.7,0.6L62.5,77.3z M64.2,81.6c0.4,0,0.8-0.2,1-0.5c0.2-0.3,0.3-0.7,0.3-1.1h-0.6
				c-0.6,0-1.6,0.1-1.6,0.9C63.3,81.4,63.7,81.6,64.2,81.6z"/>
			<path class="st4" d="M71.7,78.2c-0.3-0.1-0.5-0.2-1-0.2c-0.9,0-1.4,0.7-1.4,1.7c0,1,0.5,1.8,1.5,1.8c0.4,0,0.8-0.1,1.1-0.3
				l0.1,1.2c-0.4,0.1-0.8,0.2-1.4,0.2c-1.8,0-2.7-1.2-2.7-2.9c0-1.6,0.9-2.8,2.6-2.8c0.6,0,1,0.1,1.4,0.2L71.7,78.2z"/>
			<path class="st4" d="M72.9,74.7h1.4V76h-1.4V74.7z M72.9,77h1.4v5.5h-1.4V77z"/>
			<path class="st4" d="M78.3,76.9c1.6,0,2.9,1.1,2.9,2.9c0,1.6-1.1,2.8-2.9,2.8c-1.8,0-2.9-1.3-2.9-2.8
				C75.5,78,76.7,76.9,78.3,76.9z M78.3,81.5c1.1,0,1.4-1,1.4-1.9c0-0.8-0.4-1.6-1.4-1.6c-0.9,0-1.4,0.8-1.4,1.6
				C77,80.5,77.3,81.5,78.3,81.5z M78.4,74.7h1.5l-1.5,1.5h-0.9L78.4,74.7z"/>
			<path class="st4" d="M82.3,77h1.3v0.7h0c0.4-0.6,1.1-0.9,1.8-0.9c1.3,0,1.9,0.9,1.9,2.1v3.5h-1.4v-2.9c0-0.7,0-1.6-0.9-1.6
				c-1,0-1.3,1.1-1.3,1.8v2.7h-1.4V77z"/>
			<path class="st4" d="M96.1,82.2c-0.5,0.3-1.1,0.4-1.9,0.4c-1.8,0-2.9-1-2.9-2.8c0-1.6,0.8-2.9,2.5-2.9c2,0,2.6,1.4,2.6,3.3h-3.8
				c0.1,0.9,0.7,1.4,1.6,1.4c0.7,0,1.3-0.3,1.8-0.6V82.2z M95.2,79.2c0-0.7-0.4-1.3-1.2-1.3s-1.2,0.6-1.3,1.3H95.2z"/>
			<path class="st4" d="M97.1,77h1.5l1.4,4h0l1.3-4h1.4l-2,5.5h-1.6L97.1,77z"/>
			<path class="st4" d="M106.1,76.9c1.6,0,2.9,1.1,2.9,2.9c0,1.6-1.1,2.8-2.9,2.8c-1.8,0-2.9-1.3-2.9-2.8
				C103.2,78,104.5,76.9,106.1,76.9z M106.1,81.5c1.1,0,1.4-1,1.4-1.9c0-0.8-0.4-1.6-1.4-1.6c-0.9,0-1.4,0.8-1.4,1.6
				C104.7,80.5,105,81.5,106.1,81.5z"/>
			<path class="st4" d="M110.1,74.5h1.4v8h-1.4V74.5z"/>
			<path class="st4" d="M118,82.5h-1.3v-0.7h0c-0.4,0.5-1.1,0.9-1.8,0.9c-1.3,0-1.9-0.9-1.9-2.1V77h1.4v2.9c0,0.7,0,1.6,0.9,1.6
				c1,0,1.3-1.1,1.3-1.8V77h1.4V82.5z"/>
			<path class="st4" d="M123,78.2c-0.3-0.1-0.5-0.2-1-0.2c-0.9,0-1.4,0.7-1.4,1.7c0,1,0.5,1.8,1.5,1.8c0.4,0,0.8-0.1,1.1-0.3
				l0.1,1.2c-0.4,0.1-0.8,0.2-1.4,0.2c-1.8,0-2.7-1.2-2.7-2.9c0-1.6,0.9-2.8,2.6-2.8c0.6,0,1,0.1,1.4,0.2L123,78.2z"/>
			<path class="st4" d="M124.2,74.7h1.4V76h-1.4V74.7z M124.2,77h1.4v5.5h-1.4V77z"/>
			<path class="st4" d="M129.7,76.9c1.6,0,2.9,1.1,2.9,2.9c0,1.6-1.1,2.8-2.9,2.8c-1.8,0-2.9-1.3-2.9-2.8
				C126.8,78,128.1,76.9,129.7,76.9z M129.7,81.5c1.1,0,1.4-1,1.4-1.9c0-0.8-0.4-1.6-1.4-1.6c-0.9,0-1.4,0.8-1.4,1.6
				C128.3,80.5,128.6,81.5,129.7,81.5z"/>
			<path class="st4" d="M133.7,77h1.3v0.7h0c0.4-0.6,1.1-0.9,1.8-0.9c1.3,0,1.9,0.9,1.9,2.1v3.5h-1.4v-2.9c0-0.7,0-1.6-0.9-1.6
				c-1,0-1.3,1.1-1.3,1.8v2.7h-1.4V77z"/>
			<path class="st4" d="M140.4,77.3c0.6-0.3,1.3-0.4,1.9-0.4c1.7,0,2.4,0.7,2.4,2.3v0.7c0,0.6,0,1,0,1.4c0,0.4,0,0.8,0.1,1.2h-1.3
				c-0.1-0.3-0.1-0.6-0.1-0.8h0c-0.3,0.6-1,0.9-1.7,0.9c-1,0-1.9-0.6-1.9-1.6c0-0.8,0.4-1.3,0.9-1.6c0.5-0.3,1.2-0.3,1.8-0.3h0.8
				c0-0.9-0.4-1.2-1.2-1.2c-0.6,0-1.2,0.2-1.7,0.6L140.4,77.3z M142,81.6c0.4,0,0.8-0.2,1-0.5c0.2-0.3,0.3-0.7,0.3-1.1h-0.6
				c-0.6,0-1.6,0.1-1.6,0.9C141.1,81.4,141.5,81.6,142,81.6z"/>
		</g>
	</g>
</g>
</svg>
